<?xml version="1.0" encoding="utf-8"?>
<!-- Generator: Adobe Illustrator 23.1.0, SVG Export Plug-In . SVG Version: 6.00 Build 0)  -->
<svg version="1.1" id="Capa_1" xmlns="http://www.w3.org/2000/svg" xmlns:xlink="http://www.w3.org/1999/xlink" x="0px" y="0px"
	 viewBox="0 0 22.6 22.6" style="enable-background:new 0 0 22.6 22.6;" xml:space="preserve">
<style type="text/css">
	.st0{fill:#1A1A1A;}
</style>
<g>
	<g>
		<path class="st0" d="M22.4,11.3c0,6.1-5,11.2-11.2,11.2s-11.2-5-11.2-11.2s5-11.2,11.2-11.2S22.4,5.2,22.4,11.3z M21.4,11.3
			c0-5.6-4.6-10.2-10.2-10.2C5.7,1.2,1.1,5.7,1.1,11.3c0,5.6,4.6,10.2,10.2,10.2C16.9,21.5,21.4,16.9,21.4,11.3z"/>
	</g>
</g>
<g>
	<path d="M11.3,8.5l5.1,3.5v1.6l-5.1-3.5l-5.1,3.5V12L11.3,8.5z"/>
</g>
</svg>
