<?xml version="1.0" encoding="utf-8"?>
<!-- Generator: Adobe Illustrator 23.1.0, SVG Export Plug-In . SVG Version: 6.00 Build 0)  -->
<svg version="1.1" id="Capa_1" xmlns="http://www.w3.org/2000/svg" xmlns:xlink="http://www.w3.org/1999/xlink" x="0px" y="0px"
	 viewBox="0 0 22.6 22.6" style="enable-background:new 0 0 22.6 22.6;" xml:space="preserve">
<style type="text/css">
	.st0{opacity:1;}
	.st1{fill:#000000;}
</style>
<g class="st0">
	<g>
		<path class="st1" d="M11.3,22.5c-6.1,0-11.2-5-11.2-11.2s5-11.2,11.2-11.2s11.2,5,11.2,11.2S17.4,22.5,11.3,22.5z M11.3,1.2
			C5.7,1.2,1.1,5.7,1.1,11.3c0,5.6,4.6,10.2,10.2,10.2c5.6,0,10.2-4.6,10.2-10.2C21.4,5.7,16.9,1.2,11.3,1.2z"/>
	</g>
</g>
<g class="st0">
	<path d="M6.2,10.6V9l5.1,3.5L16.4,9v1.6l-5.1,3.5L6.2,10.6z"/>
</g>
</svg>
