<?xml version="1.0" encoding="utf-8"?>
<!-- Generator: Adobe Illustrator 23.1.0, SVG Export Plug-In . SVG Version: 6.00 Build 0)  -->
<svg version="1.1" id="Capa_1" xmlns="http://www.w3.org/2000/svg" xmlns:xlink="http://www.w3.org/1999/xlink" x="0px" y="0px"
	 viewBox="0 0 353 115" style="enable-background:new 0 0 353 115;" xml:space="preserve">
<style type="text/css">
	.st0{fill:#FFFFFF;}
</style>
<g>
	<path class="st0" d="M42,84.1c-1.5,2.8-3.9,4.9-7.1,6.4c-3.2,1.5-6.7,2.2-10.3,2.2c-3.7,0-7-0.6-9.8-1.9c-2.9-1.3-5.3-3-7.2-5.2
		c-2-2.2-3.5-4.8-4.5-7.7c-1.1-2.9-1.6-6.1-1.6-9.6V29.5h14.6v36c0,1.9,0.2,3.7,0.7,5.4c0.5,1.7,1.2,3.2,2.2,4.4
		c1,1.3,2.3,2.3,3.8,3c1.6,0.8,3.4,1.1,5.6,1.1c4.3,0,7.5-1.3,9.6-3.8c2.1-2.6,3.2-5.9,3.2-9.9V29.5h14.6v50.1
		c0,2.5,0.1,4.7,0.2,6.6s0.3,3.4,0.4,4.6h-14c-0.2-0.7-0.3-1.7-0.4-3C42.1,86.6,42,85.4,42,84.1z"/>
	<path class="st0" d="M93,29.5h12.7v13H93V71c0,2.7,0.6,4.6,1.9,5.9c1.3,1.2,3.2,1.8,5.9,1.8c1,0,2-0.1,3-0.2s1.7-0.2,2-0.3v12.1
		c-0.4,0.2-1.3,0.4-2.8,0.8c-1.4,0.4-3.5,0.6-6.2,0.6c-5.7,0-10.2-1.6-13.5-4.8c-3.3-3.2-4.9-7.7-4.9-13.5V42.5H67.2v-13h3.1
		c3.3,0,5.7-0.9,7.2-2.8c1.5-1.8,2.3-4.1,2.3-6.8v-9.2H93V29.5z"/>
	<path class="st0" d="M146.8,27.7c4.6,0,8.9,0.8,12.7,2.5c3.9,1.6,7.2,3.9,10.1,6.8c2.9,2.9,5.1,6.3,6.7,10.3
		c1.6,3.9,2.4,8.3,2.4,13c0,4.7-0.8,9.1-2.4,13c-1.6,4-3.8,7.4-6.7,10.3c-2.9,2.9-6.2,5.2-10.1,6.8c-3.9,1.6-8.1,2.5-12.7,2.5
		c-4.5,0-8.8-0.8-12.7-2.5c-3.9-1.6-7.3-3.9-10.1-6.8c-2.8-2.9-5-6.3-6.6-10.3c-1.6-4-2.4-8.3-2.4-13c0-4.7,0.8-9,2.4-13
		c1.6-3.9,3.8-7.4,6.6-10.3c2.8-2.9,6.2-5.2,10.1-6.8C138.1,28.5,142.3,27.7,146.8,27.7z M146.8,79.7c2.3,0,4.4-0.4,6.5-1.3
		c2.1-0.8,3.9-2.1,5.5-3.7c1.6-1.6,2.9-3.7,3.8-6.1c0.9-2.4,1.4-5.2,1.4-8.4c0-3.2-0.5-6-1.4-8.4c-0.9-2.4-2.2-4.4-3.8-6
		c-1.6-1.6-3.4-2.9-5.5-3.7c-2.1-0.8-4.2-1.2-6.5-1.2s-4.4,0.4-6.5,1.2c-2.1,0.8-3.9,2-5.4,3.7c-1.6,1.6-2.8,3.7-3.8,6
		c-1,2.4-1.4,5.2-1.4,8.4c0,3.2,0.5,6,1.4,8.4c1,2.4,2.2,4.5,3.8,6.1c1.6,1.6,3.4,2.9,5.4,3.7C142.4,79.3,144.6,79.7,146.8,79.7z"/>
	<path class="st0" d="M192.7,114.8V29.5h14.1v8.3c1.5-2.7,3.9-5,7.3-6.9c3.4-1.9,7.4-2.8,12.2-2.8c4.5,0,8.6,0.8,12.1,2.5
		c3.5,1.6,6.5,3.9,8.9,6.7c2.4,2.9,4.2,6.2,5.5,10.1c1.3,3.9,1.9,8.1,1.9,12.7c0,4.6-0.7,8.9-2,12.8c-1.3,3.9-3.3,7.3-5.8,10.2
		c-2.5,2.9-5.6,5.2-9.1,6.8c-3.6,1.6-7.5,2.5-11.9,2.5c-4.5,0-8.3-0.8-11.5-2.5c-3.2-1.6-5.6-3.6-7.2-6v30.9H192.7z M240.1,60.2
		c0-5.8-1.5-10.4-4.5-13.9c-3-3.4-7-5.2-12-5.2c-2.4,0-4.7,0.5-6.7,1.4c-2,0.9-3.7,2.2-5.2,3.8c-1.4,1.6-2.6,3.6-3.4,6
		c-0.8,2.4-1.3,5-1.3,7.8c0,5.9,1.6,10.6,4.7,14c3.1,3.5,7.1,5.2,11.8,5.2c4.9,0,8.8-1.7,11.9-5.2C238.5,70.7,240.1,66,240.1,60.2z"
		/>
	<path class="st0" d="M268.8,90.9V29.5h14.5v61.4H268.8z M281,20.2h-12l11.2-18.6h17.3L281,20.2z"/>
	<path class="st0" d="M297.3,74.3c0-2.8,0.5-5.2,1.4-7.3c1-2.1,2.3-3.9,3.9-5.5c1.6-1.6,3.6-2.8,5.9-3.7c2.3-0.9,4.7-1.6,7.3-2
		l15.8-2.4c1.8-0.3,3-0.8,3.6-1.6c0.6-0.8,0.9-1.7,0.9-2.8c0-2.6-0.9-4.8-2.8-6.6c-1.8-1.8-4.8-2.7-8.8-2.7c-3.9,0-6.8,1.1-8.9,3.2
		c-2.1,2.1-3.3,4.8-3.7,7.9l-13.4-3c0.3-2.6,1-5.1,2.4-7.6c1.3-2.4,3.1-4.6,5.3-6.4c2.2-1.8,4.8-3.3,7.9-4.4
		c3.1-1.1,6.5-1.6,10.3-1.6c4.7,0,8.7,0.6,12,1.9c3.3,1.3,6,2.9,8.1,5c2.1,2.1,3.6,4.5,4.5,7.3c1,2.8,1.4,5.7,1.4,8.7v30.5
		c0,2.8,0.1,5,0.3,6.7c0.2,1.7,0.4,2.8,0.4,3.1h-13.6c-0.1-0.2-0.2-0.9-0.4-2.2c-0.2-1.3-0.3-3.2-0.3-5.6c-1.4,2.4-3.7,4.6-6.8,6.6
		c-3.1,2.1-7.1,3.1-12.1,3.1c-3.2,0-6.1-0.5-8.6-1.5c-2.6-1-4.7-2.4-6.6-4.1c-1.8-1.7-3.2-3.7-4.2-5.9
		C297.8,79,297.3,76.7,297.3,74.3z M320.8,81.3c2,0,3.9-0.3,5.8-0.8c1.8-0.5,3.5-1.4,4.9-2.6c1.4-1.2,2.5-2.8,3.3-4.9
		c0.8-2,1.3-4.5,1.3-7.6v-2.8l-16,2.4c-2.3,0.4-4.2,1.3-5.8,2.6c-1.6,1.3-2.4,3.2-2.4,5.7c0,2.1,0.8,3.9,2.3,5.5
		C315.7,80.5,317.9,81.3,320.8,81.3z"/>
</g>
</svg>
