<?xml version="1.0" encoding="utf-8"?>
<!-- Generator: Adobe Illustrator 23.1.0, SVG Export Plug-In . SVG Version: 6.00 Build 0)  -->
<svg version="1.1" id="Capa_1" xmlns="http://www.w3.org/2000/svg" xmlns:xlink="http://www.w3.org/1999/xlink" x="0px" y="0px"
	 viewBox="0 0 731.7 211.2" style="enable-background:new 0 0 731.7 211.2;" xml:space="preserve">
<style type="text/css">
	.st0{fill:#FFFFFF;}
	.st1{fill:none;}
</style>
<g>
	<path class="st0" d="M89.3,181.7c2.6,0,5.2-0.1,7.8-0.4c-29.6-11.5-52.9-35.4-63.8-65.3H1.7C12.7,154,47.8,181.7,89.3,181.7"/>
	<path class="st0" d="M94.2,201.9c15.4,6,32.1,9.3,49.7,9.3c64.8,0,119.1-45,133.4-105.4h-80.7C189,157.3,146.7,197.4,94.2,201.9"/>
	<path class="st0" d="M110.5,2c0,0-9.7,13.1,13.3,43.3c22.8,29.9,47.5,54.6,31,91.6c-0.2,0.4-0.6,1.4-0.8,1.9
		c-1.8,4.2-11.1,23.3-32.4,35.6c0,0,12-21.4-9.2-51S66.9,74.8,71.6,42.8C76.2,10.9,110.5,2,110.5,2"/>
	<rect x="1.7" y="2" class="st1" width="730" height="209.2"/>
	<polygon class="st0" points="306.3,106.1 331.1,106.1 331.1,111.1 311.7,111.1 311.7,123.5 329.8,123.5 329.8,128.5 311.7,128.5 
		311.7,145.5 306.3,145.5 	"/>
	<path class="st0" d="M354.6,106.1v24.2c0,1.2,0.2,2.5,0.5,3.8s0.9,2.5,1.7,3.6c0.8,1.1,1.8,2,3.1,2.7c1.3,0.7,2.8,1.1,4.7,1.1
		c1.9,0,3.4-0.4,4.7-1.1c1.3-0.7,2.3-1.6,3.1-2.7c0.8-1.1,1.3-2.3,1.7-3.6c0.3-1.3,0.5-2.6,0.5-3.8v-24.2h5.3v25
		c0,2.3-0.4,4.4-1.2,6.3c-0.8,1.9-1.9,3.5-3.2,4.9c-1.4,1.4-3,2.4-4.8,3.2c-1.9,0.7-3.9,1.1-6,1.1c-2.2,0-4.2-0.4-6-1.1
		c-1.9-0.7-3.5-1.8-4.8-3.2c-1.4-1.4-2.4-3-3.2-4.9c-0.8-1.9-1.2-4-1.2-6.3v-25C349.5,106.1,354.6,106.1,354.6,106.1z"/>
	<rect x="1.7" y="2" class="st1" width="730" height="209.2"/>
	<polygon class="st0" points="400.9,106.1 407.9,106.1 429.6,138.5 429.7,138.5 429.7,106.1 435.1,106.1 435.1,145.5 428.3,145.5 
		406.3,113.1 406.2,113.1 406.2,145.5 400.9,145.5 	"/>
	<path class="st0" d="M461.4,140.5h6.7c2.3,0,4.4-0.3,6.4-0.9c2-0.6,3.8-1.5,5.3-2.8c1.5-1.2,2.7-2.8,3.6-4.6s1.3-4,1.3-6.4
		c0-1.3-0.2-2.7-0.6-4.4c-0.4-1.7-1.2-3.3-2.3-4.8c-1.1-1.5-2.7-2.8-4.7-3.9s-4.6-1.6-7.8-1.6h-8v29.4H461.4z M456,106.1h13.8
		c2.8,0,5.2,0.3,7.3,0.9c2.1,0.6,3.9,1.5,5.5,2.5c1.5,1.1,2.8,2.3,3.8,3.6c1,1.4,1.8,2.8,2.4,4.2c0.6,1.4,1,2.9,1.3,4.3
		c0.3,1.5,0.4,2.8,0.4,4c0,2.5-0.5,5-1.4,7.3c-0.9,2.4-2.3,4.5-4.1,6.3c-1.8,1.8-4.1,3.3-6.8,4.4c-2.7,1.1-5.8,1.7-9.3,1.7H456
		V106.1z"/>
	<rect x="1.7" y="2" class="st1" width="730" height="209.2"/>
	<path class="st0" d="M531.8,131.1l-7.4-18.1h-0.1l-7.5,18.1H531.8z M522.2,106.1h4.8l16.9,39.4h-6.2l-4-9.7H515l-3.9,9.7h-6.2
		L522.2,106.1z"/>
	<path class="st0" d="M588.2,114.6c-1.1-1.5-2.5-2.6-4.2-3.3c-1.7-0.8-3.5-1.2-5.3-1.2c-2.2,0-4.2,0.4-6,1.3c-1.8,0.8-3.3,2-4.6,3.4
		c-1.3,1.5-2.3,3.1-3,5.1c-0.7,1.9-1.1,4-1.1,6.3c0,2.1,0.3,4,1,5.9s1.6,3.5,2.9,4.9c1.3,1.4,2.8,2.5,4.6,3.3s3.9,1.2,6.2,1.2
		s4.2-0.5,6-1.4c1.7-0.9,3.2-2.2,4.4-3.9l4.5,3.4c-0.3,0.4-0.8,1-1.6,1.8c-0.7,0.8-1.7,1.5-2.9,2.3s-2.7,1.4-4.4,2s-3.7,0.9-6,0.9
		c-3.1,0-5.9-0.6-8.4-1.8s-4.6-2.7-6.4-4.7c-1.8-1.9-3.1-4.1-4-6.5s-1.4-4.9-1.4-7.4c0-3,0.5-5.8,1.5-8.4s2.4-4.8,4.2-6.7
		c1.8-1.9,4-3.3,6.5-4.4c2.5-1,5.3-1.6,8.4-1.6c2.6,0,5.2,0.5,7.7,1.5s4.6,2.5,6.2,4.6L588.2,114.6z"/>
	<rect x="1.7" y="2" class="st1" width="730" height="209.2"/>
	<rect x="611.7" y="106.1" class="st0" width="5.4" height="39.4"/>
	<path class="st0" d="M659,95.8h7.1l-8.3,8h-4.6L659,95.8z M656.9,141.5c2.3,0,4.3-0.4,6.1-1.3c1.8-0.8,3.4-2,4.7-3.4s2.3-3.1,3-5
		s1.1-3.9,1.1-6.1c0-2.1-0.4-4.2-1.1-6.1c-0.7-1.9-1.7-3.6-3-5s-2.9-2.5-4.7-3.4c-1.8-0.8-3.9-1.3-6.1-1.3c-2.3,0-4.3,0.4-6.1,1.3
		c-1.8,0.8-3.4,2-4.7,3.4s-2.3,3.1-3,5s-1.1,3.9-1.1,6.1s0.4,4.2,1.1,6.1c0.7,1.9,1.7,3.6,3,5s2.9,2.5,4.7,3.4
		C652.6,141.1,654.7,141.5,656.9,141.5 M656.9,146.5c-3,0-5.8-0.5-8.3-1.6s-4.7-2.5-6.5-4.4s-3.2-4-4.2-6.6c-1-2.5-1.5-5.3-1.5-8.2
		c0-2.9,0.5-5.7,1.5-8.2s2.4-4.7,4.2-6.6s4-3.3,6.5-4.4s5.3-1.6,8.3-1.6s5.8,0.5,8.3,1.6s4.7,2.5,6.5,4.4s3.2,4.1,4.2,6.6
		s1.5,5.3,1.5,8.2s-0.5,5.7-1.5,8.2s-2.4,4.7-4.2,6.6c-1.8,1.9-4,3.3-6.5,4.4C662.7,146,659.9,146.5,656.9,146.5"/>
	<rect x="1.7" y="2" class="st1" width="730" height="209.2"/>
	<polygon class="st0" points="725.7,106.1 725.7,138.5 725.6,138.5 703.9,106.1 696.8,106.1 696.8,145.5 702.2,145.5 702.2,113.1 
		702.3,113.1 724.2,145.5 731,145.5 731,106.1 	"/>
	<path class="st0" d="M314.4,197.2h7.8c0.7,0,1.3-0.1,2-0.2c0.7-0.2,1.3-0.4,1.9-0.8c0.5-0.4,1-0.9,1.4-1.5s0.5-1.3,0.5-2.2
		s-0.2-1.7-0.7-2.3s-1.1-1-1.8-1.3c-0.7-0.3-1.5-0.5-2.3-0.6s-1.6-0.2-2.3-0.2h-6.6v9.1H314.4z M314.4,180.9h6.3
		c0.7,0,1.3-0.1,2-0.2c0.6-0.2,1.2-0.4,1.8-0.7c0.5-0.3,0.9-0.8,1.3-1.3c0.3-0.6,0.5-1.2,0.5-2s-0.2-1.5-0.5-2
		c-0.4-0.5-0.8-1-1.4-1.3s-1.2-0.5-1.9-0.6c-0.7-0.1-1.4-0.2-2.1-0.2h-5.9L314.4,180.9L314.4,180.9z M305.7,165.1h14.7
		c1.7,0,3.4,0.1,5.2,0.4c1.7,0.2,3.3,0.7,4.6,1.5c1.4,0.7,2.5,1.7,3.3,3c0.9,1.3,1.3,3,1.3,5.2s-0.6,4.1-1.9,5.5
		c-1.2,1.5-2.9,2.5-4.9,3.2v0.1c1.3,0.2,2.5,0.5,3.5,1.1c1.1,0.5,2,1.2,2.7,2.1c0.8,0.8,1.3,1.8,1.8,2.9c0.4,1.1,0.6,2.3,0.6,3.6
		c0,2.1-0.4,3.8-1.3,5.2s-2,2.5-3.4,3.4s-3,1.5-4.8,1.8c-1.8,0.4-3.5,0.6-5.3,0.6h-16.1L305.7,165.1L305.7,165.1z"/>
	<path class="st0" d="M375,189.4c0,2.3-0.4,4.5-1.1,6.5s-1.8,3.7-3.1,5.1c-1.4,1.5-3.1,2.6-5.2,3.4c-2.1,0.8-4.5,1.2-7.2,1.2
		s-5.2-0.4-7.2-1.2c-2.1-0.8-3.8-2-5.2-3.4c-1.4-1.4-2.4-3.1-3.1-5.1s-1.1-4.1-1.1-6.5v-24.2h8.7V189c0,1.2,0.2,2.4,0.6,3.4
		s0.9,1.9,1.6,2.7s1.6,1.4,2.5,1.8c1,0.4,2,0.6,3.2,0.6s2.2-0.2,3.2-0.6c1-0.4,1.8-1,2.5-1.8s1.3-1.7,1.6-2.7c0.4-1,0.6-2.2,0.6-3.4
		v-23.9h8.7V189.4z"/>
	<rect x="1.7" y="2" class="st1" width="730" height="209.2"/>
	<polygon class="st0" points="411.7,165.1 411.7,192.5 411.6,192.5 394.8,165.1 383,165.1 383,204.6 391.7,204.6 391.7,176.5 
		391.8,176.5 409,204.6 420.4,204.6 420.4,165.1 	"/>
	<path class="st0" d="M464.1,201.8c-2.6,1.3-5.2,2.3-8,2.9c-2.8,0.6-5.6,0.9-8.5,0.9c-3.1,0-5.9-0.5-8.5-1.4c-2.6-1-4.8-2.4-6.7-4.2
		c-1.9-1.8-3.4-4-4.4-6.5c-1.1-2.6-1.6-5.4-1.6-8.6c0-3.1,0.5-6,1.6-8.6s2.5-4.7,4.4-6.5s4.1-3.2,6.7-4.2s5.4-1.4,8.5-1.4
		c3.2,0,6.1,0.4,8.7,1.1c2.7,0.8,5,2.1,7,3.9l-6.1,6.7c-1.2-1.2-2.5-2.2-4-2.8s-3.3-0.9-5.6-0.9c-1.9,0-3.5,0.3-5,0.9
		c-1.5,0.6-2.8,1.5-3.9,2.6s-1.9,2.5-2.5,4c-0.6,1.6-0.9,3.3-0.9,5.1c0,1.9,0.3,3.6,0.9,5.1s1.4,2.9,2.5,4s2.4,2,3.9,2.6
		s3.2,0.9,5,0.9c1.9,0,3.5-0.2,4.9-0.6c1.4-0.4,2.5-0.9,3.3-1.3v-6.4h-7.1v-8h15.4L464.1,201.8L464.1,201.8z"/>
	<rect x="1.7" y="2" class="st1" width="730" height="209.2"/>
	<polygon class="st0" points="472,165.1 472,204.6 499.8,204.6 499.8,196.5 480.7,196.5 480.7,188.5 497.8,188.5 497.8,180.5 
		480.7,180.5 480.7,173.2 498.8,173.2 498.8,165.1 	"/>
	<polygon class="st0" points="546.2,165.1 537.3,179.9 529,165.1 518.2,165.1 533,187.8 533,204.6 541.7,204.6 541.7,187.8 
		556.5,165.1 	"/>
	<path class="st0" d="M584.5,197.2h7.8c0.7,0,1.3-0.1,2-0.2c0.7-0.2,1.3-0.4,1.9-0.8c0.5-0.4,1-0.9,1.4-1.5s0.5-1.3,0.5-2.2
		s-0.2-1.7-0.7-2.3s-1.1-1-1.8-1.3s-1.5-0.5-2.3-0.6s-1.6-0.2-2.3-0.2h-6.6L584.5,197.2L584.5,197.2z M584.5,180.9h6.3
		c0.7,0,1.3-0.1,2-0.2c0.6-0.2,1.2-0.4,1.8-0.7c0.5-0.3,0.9-0.8,1.3-1.3c0.3-0.6,0.5-1.2,0.5-2s-0.2-1.5-0.5-2
		c-0.4-0.5-0.8-1-1.4-1.3c-0.6-0.3-1.2-0.5-1.9-0.6s-1.4-0.2-2.1-0.2h-5.9L584.5,180.9L584.5,180.9z M575.8,165.1h14.7
		c1.7,0,3.4,0.1,5.2,0.4c1.7,0.2,3.3,0.7,4.6,1.5c1.4,0.7,2.5,1.7,3.3,3c0.9,1.3,1.3,3,1.3,5.2s-0.6,4.1-1.9,5.5
		c-1.2,1.5-2.9,2.5-4.9,3.2v0.1c1.3,0.2,2.5,0.5,3.5,1.1c1.1,0.5,2,1.2,2.7,2.1c0.8,0.8,1.3,1.8,1.8,2.9c0.4,1.1,0.6,2.3,0.6,3.6
		c0,2.1-0.4,3.8-1.3,5.2c-0.9,1.4-2,2.5-3.4,3.4s-3,1.5-4.8,1.8c-1.8,0.4-3.5,0.6-5.3,0.6h-16.1L575.8,165.1L575.8,165.1z"/>
	<path class="st0" d="M618.8,184.9c0,1.9,0.3,3.6,0.9,5.1c0.6,1.5,1.4,2.9,2.5,4s2.4,2,3.9,2.6s3.2,0.9,5,0.9c1.9,0,3.5-0.3,5-0.9
		c1.5-0.6,2.8-1.5,3.9-2.6c1.1-1.1,1.9-2.5,2.5-4s0.9-3.2,0.9-5.1c0-1.8-0.3-3.5-0.9-5.1c-0.6-1.6-1.4-2.9-2.5-4s-2.4-2-3.9-2.7
		c-1.5-0.6-3.2-0.9-5-0.9c-1.9,0-3.5,0.3-5,0.9c-1.5,0.6-2.8,1.5-3.9,2.7c-1.1,1.1-1.9,2.5-2.5,4C619.1,181.3,618.8,183,618.8,184.9
		 M609.8,184.9c0-3.2,0.5-6,1.6-8.6s2.5-4.7,4.4-6.5s4.1-3.2,6.7-4.1c2.6-1,5.4-1.5,8.5-1.5s5.9,0.5,8.5,1.5s4.8,2.3,6.7,4.1
		s3.4,4,4.4,6.5c1.1,2.6,1.6,5.4,1.6,8.6c0,3.2-0.5,6-1.6,8.6s-2.5,4.7-4.4,6.5s-4.1,3.2-6.7,4.1c-2.6,1-5.4,1.5-8.5,1.5
		s-5.9-0.5-8.5-1.5s-4.8-2.3-6.7-4.1s-3.4-4-4.4-6.5C610.3,190.9,609.8,188,609.8,184.9"/>
	<path class="st0" d="M666.9,181.5h5.1c0.8,0,1.6,0,2.5-0.1s1.7-0.2,2.4-0.5s1.3-0.7,1.8-1.3s0.7-1.4,0.7-2.5c0-1-0.2-1.8-0.6-2.4
		c-0.4-0.6-0.9-1-1.6-1.4c-0.6-0.3-1.3-0.5-2.2-0.6s-1.6-0.2-2.4-0.2h-5.7V181.5z M658.3,165.1h15.3c2,0,3.9,0.2,5.7,0.6
		c1.8,0.4,3.4,1,4.7,2c1.4,0.9,2.4,2.1,3.2,3.7c0.8,1.5,1.2,3.5,1.2,5.8c0,2.8-0.7,5.1-2.2,7.1c-1.4,1.9-3.6,3.2-6.3,3.7l10,16.7
		h-10.4l-8.2-15.8H667v15.8h-8.7V165.1z"/>
	<polygon class="st0" points="723,165.1 723,192.5 722.9,192.5 706.1,165.1 694.3,165.1 694.3,204.6 703,204.6 703,176.5 
		703.1,176.5 720.3,204.6 731.7,204.6 731.7,165.1 	"/>
</g>
</svg>
